<svg width="1235" height="18" viewBox="0 0 1235 18" fill="none" xmlns="http://www.w3.org/2000/svg">
    <path fill-rule="evenodd" clip-rule="evenodd" d="M461.5 1C462.605 1 463.5 1.89543 463.5 3V15C463.5 16.1046 462.605 17 461.5 17H449.5C448.395 17 447.5 16.1046 447.5 15V3C447.5 1.89543 448.395 1 449.5 1H461.5ZM459.076 14.4534C458.51 14.4534 458.008 14.3508 457.571 14.1456C457.134 13.9366 456.792 13.6479 456.545 13.2792C456.298 12.9068 456.173 12.4812 456.169 12.0024H457.52C457.52 12.2532 457.586 12.4774 457.719 12.675C457.852 12.8726 458.037 13.0265 458.272 13.1367C458.512 13.2431 458.785 13.2963 459.093 13.2963C459.393 13.2963 459.657 13.2469 459.885 13.1481C460.113 13.0493 460.288 12.9106 460.41 12.732C460.535 12.5496 460.598 12.3406 460.598 12.105C460.598 11.8086 460.509 11.554 460.33 11.3412C460.151 11.1246 459.914 10.9916 459.617 10.9423L458.267 10.7142C457.879 10.6458 457.543 10.509 457.258 10.3038C456.973 10.0986 456.752 9.84215 456.596 9.53435C456.444 9.22275 456.368 8.88265 456.368 8.51405C456.368 8.07325 456.482 7.67805 456.71 7.32845C456.942 6.97505 457.263 6.69955 457.674 6.50195C458.084 6.30055 458.548 6.19985 459.065 6.19985C459.593 6.19985 460.062 6.29675 460.472 6.49055C460.887 6.68435 461.21 6.95415 461.441 7.29995C461.673 7.64575 461.791 8.04095 461.795 8.48555H460.444C460.444 8.26895 460.387 8.07515 460.273 7.90415C460.159 7.72935 459.999 7.59445 459.794 7.49945C459.589 7.40445 459.351 7.35695 459.082 7.35695C458.812 7.35695 458.574 7.40255 458.369 7.49375C458.164 7.58495 458.004 7.71415 457.89 7.88135C457.776 8.04855 457.719 8.24235 457.719 8.46275C457.719 8.72115 457.803 8.94535 457.97 9.13535C458.137 9.32155 458.356 9.43745 458.626 9.48305L459.954 9.69965C460.345 9.76805 460.693 9.91435 460.997 10.1385C461.305 10.3627 461.542 10.642 461.709 10.9764C461.877 11.3108 461.96 11.6661 461.96 12.0423C461.96 12.4983 461.839 12.9106 461.595 13.2792C461.352 13.644 461.012 13.9309 460.575 14.1399C460.138 14.3489 459.638 14.4534 459.076 14.4534ZM450.449 13H451.794C452 13 452.18 12.9582 452.336 12.8746C452.496 12.7872 452.617 12.6656 452.701 12.5098C452.788 12.3502 452.832 12.1678 452.832 11.9626L452.832 6.33331H454.166L454.166 12.1445C454.166 12.5739 454.071 12.9539 453.881 13.2845C453.691 13.6151 453.427 13.8735 453.088 14.0597C452.75 14.2421 452.363 14.3333 451.926 14.3333H450.449V13Z" fill="white" fill-opacity="0.4"/>
    <path fill-rule="evenodd" clip-rule="evenodd" d="M507.5 1C508.605 1 509.5 1.89543 509.5 3V15C509.5 16.1046 508.605 17 507.5 17H495.5C494.395 17 493.5 16.1046 493.5 15V3C493.5 1.89543 494.395 1 495.5 1H507.5ZM503.573 14.1463C504.01 14.3515 504.511 14.4541 505.077 14.4541C505.64 14.4541 506.14 14.3496 506.577 14.1406C507.014 13.9316 507.354 13.6447 507.597 13.2799C507.84 12.9113 507.962 12.499 507.962 12.043C507.962 11.6668 507.878 11.3115 507.711 10.9771C507.544 10.6427 507.306 10.3634 506.998 10.1392C506.694 9.91502 506.347 9.76872 505.955 9.70032L504.627 9.48372C504.357 9.43812 504.139 9.32222 503.972 9.13602C503.804 8.94602 503.721 8.72182 503.721 8.46342C503.721 8.24302 503.778 8.04922 503.892 7.88202C504.006 7.71482 504.165 7.58562 504.371 7.49442C504.576 7.40322 504.813 7.35762 505.083 7.35762C505.353 7.35762 505.59 7.40512 505.796 7.50012C506.001 7.59512 506.16 7.73002 506.274 7.90482C506.388 8.07582 506.445 8.26962 506.445 8.48622H507.796C507.793 8.04162 507.675 7.64642 507.443 7.30062C507.211 6.95482 506.888 6.68502 506.474 6.49122C506.064 6.29742 505.594 6.20052 505.066 6.20052C504.549 6.20052 504.086 6.30122 503.675 6.50262C503.265 6.70022 502.944 6.97572 502.712 7.32912C502.484 7.67872 502.37 8.07392 502.37 8.51472C502.37 8.88332 502.446 9.22342 502.598 9.53502C502.754 9.84282 502.974 10.0993 503.259 10.3045C503.544 10.5097 503.88 10.6465 504.268 10.7149L505.619 10.9429C505.915 10.9923 506.153 11.1253 506.331 11.3419C506.51 11.5547 506.599 11.8093 506.599 12.1057C506.599 12.3413 506.537 12.5503 506.411 12.7327C506.29 12.9113 506.115 13.05 505.887 13.1488C505.659 13.2476 505.395 13.297 505.095 13.297C504.787 13.297 504.513 13.2438 504.274 13.1374C504.038 13.0272 503.854 12.8733 503.721 12.6757C503.588 12.4781 503.521 12.2539 503.521 12.0031H502.17C502.174 12.4819 502.3 12.9075 502.547 13.2799C502.794 13.6485 503.136 13.9373 503.573 14.1463ZM501.329 6.3338H495.013V7.66714H497.5V14.3338H498.833V7.66714H501.329V6.3338Z" fill="white" fill-opacity="0.4"/>
    <path d="M548.5 10.125C549.121 10.125 549.625 9.62133 549.625 9.00001C549.625 8.37869 549.121 7.87501 548.5 7.87501C547.879 7.87501 547.375 8.37869 547.375 9.00001C547.375 9.62133 547.879 10.125 548.5 10.125Z" fill="white" fill-opacity="0.4"/>
    <path fill-rule="evenodd" clip-rule="evenodd" d="M552.437 2.18008C553.399 2.73513 553.626 4.31061 553.194 6.28984C555.124 6.90494 556.375 7.88988 556.375 9.00001C556.375 10.1101 555.124 11.095 553.194 11.7101C553.627 13.6894 553.399 15.2649 552.438 15.8199C551.476 16.375 549.998 15.7844 548.5 14.4202C547.002 15.7844 545.524 16.375 544.562 15.82C543.601 15.2649 543.373 13.6894 543.806 11.7101C541.876 11.095 540.625 10.1101 540.625 9.00001C540.625 7.88988 541.876 6.90494 543.806 6.28984C543.374 4.31059 543.601 2.73509 544.563 2.18004C545.524 1.62499 547.002 2.21554 548.5 3.57965C549.998 2.21556 551.476 1.62503 552.437 2.18008ZM551.875 14.8457C551.801 14.8884 551.631 14.9453 551.274 14.8523C550.911 14.7575 550.44 14.5249 549.891 14.1149C549.696 13.9689 549.497 13.8048 549.296 13.6234C549.668 13.2169 550.036 12.7661 550.392 12.277C550.993 12.2134 551.568 12.1202 552.106 12.0012C552.163 12.2661 552.205 12.5205 552.234 12.7624C552.315 13.4421 552.281 13.9669 552.181 14.3288C552.083 14.6842 551.949 14.8029 551.875 14.8457ZM548.896 12.3708C548.764 12.5293 548.632 12.6814 548.5 12.8268C548.368 12.6814 548.236 12.5293 548.104 12.3708C548.236 12.3736 548.367 12.375 548.5 12.375C548.633 12.375 548.765 12.3736 548.896 12.3708ZM551.814 10.9134C551.622 10.9551 551.424 10.9934 551.221 11.028C551.289 10.9159 551.356 10.8024 551.423 10.6875C551.489 10.5726 551.554 10.4576 551.617 10.3426C551.689 10.5358 551.754 10.7263 551.814 10.9134ZM550.448 10.125C550.667 9.74726 550.865 9.37106 551.044 8.99984C550.865 8.62873 550.667 8.25265 550.449 7.87499C550.231 7.49729 550.004 7.13731 549.772 6.79671C549.361 6.76615 548.936 6.75001 548.5 6.75001C548.064 6.75001 547.639 6.76615 547.228 6.7967C546.996 7.13731 546.769 7.49731 546.551 7.87503C546.333 8.25268 546.135 8.62875 545.956 8.99985C546.135 9.37105 546.333 9.74723 546.552 10.125C546.77 10.5027 546.996 10.8627 547.228 11.2033C547.639 11.2339 548.064 11.25 548.5 11.25C548.936 11.25 549.361 11.2339 549.772 11.2033C550.004 10.8627 550.23 10.5027 550.448 10.125ZM551.423 7.31249C551.489 7.42733 551.554 7.5422 551.617 7.65703C551.688 7.46396 551.754 7.27362 551.814 7.08657C551.622 7.04491 551.424 7.00663 551.222 6.97201C551.289 7.08411 551.357 7.19761 551.423 7.31249ZM550.392 5.72306C550.994 5.78663 551.568 5.87982 552.106 5.99882C552.162 5.7339 552.205 5.47949 552.234 5.23761C552.315 4.5579 552.28 4.0331 552.181 3.67119C552.083 3.31584 551.949 3.19713 551.875 3.15436C551.801 3.11158 551.631 3.05469 551.274 3.14773C550.911 3.24249 550.439 3.4751 549.891 3.88516C549.696 4.03106 549.497 4.19516 549.296 4.37645C549.668 4.78305 550.036 5.23386 550.392 5.72306ZM552.284 8.99983C552.53 8.44714 552.736 7.90322 552.902 7.37767C553.16 7.46128 553.401 7.55159 553.625 7.64756C554.254 7.91721 554.692 8.2094 554.955 8.47655C555.214 8.73886 555.25 8.91445 555.25 9.00001C555.25 9.08556 555.214 9.26116 554.955 9.52347C554.692 9.79062 554.254 10.0828 553.625 10.3525C553.401 10.4484 553.16 10.5387 552.902 10.6223C552.736 10.0967 552.53 9.55262 552.284 8.99983ZM546.608 12.277C546.007 12.2134 545.432 12.1202 544.894 12.0012C544.837 12.2661 544.795 12.5205 544.766 12.7624C544.685 13.4422 544.719 13.967 544.819 14.3289C544.917 14.6842 545.051 14.8029 545.125 14.8457C545.199 14.8885 545.369 14.9454 545.726 14.8523C546.089 14.7576 546.56 14.525 547.109 14.1149C547.304 13.9689 547.503 13.8048 547.704 13.6234C547.332 13.2169 546.964 12.7661 546.608 12.277ZM545.383 10.3426C545.311 10.5358 545.246 10.7263 545.186 10.9134C545.378 10.9551 545.576 10.9934 545.779 11.028C545.711 10.9159 545.644 10.8024 545.577 10.6875C545.511 10.5726 545.446 10.4576 545.383 10.3426ZM544.098 10.6223C544.264 10.0967 544.47 9.55263 544.716 8.99984C544.47 8.44715 544.264 7.90322 544.098 7.37767C543.84 7.46128 543.599 7.55159 543.375 7.64756C542.746 7.91721 542.308 8.2094 542.045 8.47655C541.786 8.73886 541.75 8.91445 541.75 9.00001C541.75 9.08556 541.786 9.26116 542.045 9.52347C542.308 9.79062 542.746 10.0828 543.375 10.3525C543.599 10.4484 543.84 10.5387 544.098 10.6223ZM545.577 7.31253C545.511 7.42735 545.446 7.54222 545.383 7.65704C545.312 7.46397 545.246 7.27362 545.186 7.08657C545.378 7.04491 545.576 7.00663 545.779 6.97201C545.711 7.08411 545.643 7.19764 545.577 7.31253ZM548.5 5.62501C548.367 5.62501 548.235 5.62641 548.104 5.62919C548.236 5.47067 548.368 5.31854 548.5 5.17307C548.632 5.31854 548.764 5.47067 548.896 5.6292C548.765 5.62642 548.633 5.62501 548.5 5.62501ZM546.608 5.72305C546.964 5.23385 547.332 4.78305 547.704 4.37645C547.503 4.19514 547.304 4.03103 547.109 3.88512C546.561 3.47506 546.089 3.24245 545.726 3.14769C545.369 3.05465 545.199 3.11154 545.125 3.15432C545.051 3.1971 544.917 3.3158 544.819 3.67116C544.72 4.03306 544.685 4.55786 544.766 5.23757C544.795 5.47946 544.838 5.73389 544.894 5.99882C545.432 5.87982 546.006 5.78662 546.608 5.72305Z" fill="white" fill-opacity="0.4"/>
    <g clip-path="url(#clip0_201_11707)">
        <path fill-rule="evenodd" clip-rule="evenodd" d="M595.5 5.80001L597.348 2.60001H603.5L595.5 16.4566L587.5 2.60001H593.652L595.5 5.80001ZM595.5 11.4L599.5 4.2H601.5L595.5 14.6L589.5 4.2H591.5L595.5 11.4Z" fill="white" fill-opacity="0.4"/>
    </g>
    <path fill-rule="evenodd" clip-rule="evenodd" d="M635.52 2.02039L636.641 14.6068L641.673 16L646.726 14.6L647.848 2.02039H635.52ZM641.678 4.59271H637.811L638.232 9.25485H641.678V9.25825H643.581L643.401 11.2631L641.681 11.7245L639.957 11.2631L639.848 10.0296H638.299L638.516 12.4524L641.683 13.3359V13.3276L644.838 12.4524L645.263 7.71553H641.684H641.678H639.645L639.503 6.13543H641.678H641.684H645.402L645.545 4.59271H641.684H641.678Z" fill="white" fill-opacity="0.4"/>
    <path fill-rule="evenodd" clip-rule="evenodd" d="M682.44 14.6005L687.492 16L692.558 14.5985L693.684 2H681.314L682.44 14.6005ZM683.615 4.57568L683.756 6.1211H689.675L689.534 7.70361H683.894L684.033 9.249L689.4 9.249L689.22 11.2533L687.493 11.7186L687.492 11.719L685.767 11.2543L685.657 10.0217H684.102L684.319 12.4482L687.491 13.327L687.498 13.3249L690.668 12.4482L691.055 8.1186L691.093 7.70361L691.372 4.57568H683.615Z" fill="white" fill-opacity="0.4"/>
    <path d="M727.93 11.5747L727.5 4.77146L732.074 2.655L727.93 11.5747Z" fill="white" fill-opacity="0.4"/>
    <path d="M731.853 10.0245H735.147L733.5 6.01644L731.853 10.0245Z" fill="white" fill-opacity="0.4"/>
    <path d="M733.5 15.3417L730.363 13.5626L731.002 12.0164H735.998L736.637 13.5626L733.5 15.3417Z" fill="white" fill-opacity="0.4"/>
    <path d="M739.07 11.5747L739.5 4.77146L734.926 2.655L739.07 11.5747Z" fill="white" fill-opacity="0.4"/>
    <path d="M778.896 16.7304C779.081 16.8371 779.291 16.8925 779.503 16.8925L779.502 16.8895C779.716 16.8895 779.926 16.8345 780.112 16.7273L785.893 13.3877C786.267 13.1705 786.5 12.7666 786.5 12.3338V5.66024C786.5 5.22595 786.267 4.82206 785.893 4.60637L780.112 1.26524C779.748 1.05823 779.262 1.05823 778.896 1.26524L773.107 4.60492C772.732 4.81917 772.5 5.2245 772.5 5.65879V12.3324C772.5 12.7652 772.732 13.1705 773.107 13.3877L774.624 14.262C775.359 14.6239 775.623 14.6239 775.957 14.6239C777.044 14.6239 777.669 13.9653 777.669 12.8188V6.22916C777.669 6.13506 777.594 6.06268 777.503 6.06268H776.77C776.676 6.06268 776.603 6.13506 776.603 6.22916V12.8159C776.603 13.3254 776.077 13.8321 775.217 13.4021L773.633 12.4872C773.578 12.4568 773.544 12.396 773.544 12.3324V5.65879C773.544 5.5951 773.579 5.53285 773.635 5.501L779.415 2.16567C779.469 2.13382 779.54 2.13382 779.593 2.16567L785.374 5.501C785.429 5.5343 785.464 5.59365 785.464 5.66024V12.3338C785.464 12.3975 785.429 12.4597 785.375 12.4901L779.592 15.8284C779.542 15.8573 779.466 15.8573 779.413 15.8284L777.93 14.9482C777.885 14.9222 777.829 14.9135 777.786 14.9381C777.375 15.1711 777.297 15.2015 776.913 15.3362C776.818 15.369 776.677 15.4261 776.965 15.5873L778.896 16.7304Z" fill="white" fill-opacity="0.4"/>
    <path d="M778.228 10.1582C778.228 11.1324 778.759 12.294 781.289 12.294L781.281 12.3008C783.113 12.3008 784.164 11.5785 784.164 10.319C784.164 9.06971 783.32 8.73676 781.543 8.5008C779.748 8.26339 779.565 8.14034 779.565 7.71908C779.565 7.37165 779.72 6.90841 781.05 6.90841C782.239 6.90841 782.676 7.16464 782.857 7.96517C782.873 8.04045 782.941 8.09546 783.019 8.09546H783.771C783.817 8.09546 783.862 8.07519 783.894 8.0419C783.925 8.00715 783.943 7.96083 783.938 7.91306C783.823 6.53202 782.905 5.88928 781.053 5.88928C779.404 5.88928 778.42 6.58414 778.42 7.75093C778.42 9.0176 779.399 9.36648 780.982 9.52282C782.876 9.70812 783.024 9.98461 783.024 10.3567C783.024 11.003 782.505 11.2784 781.286 11.2784C779.756 11.2784 779.42 10.8944 779.307 10.1333C779.294 10.0518 779.225 9.99171 779.142 9.99171H778.395C778.303 9.99171 778.228 10.0655 778.228 10.1582Z" fill="white" fill-opacity="0.4"/>
    <defs>
        <clipPath id="clip0_201_11707">
            <rect width="16" height="16" fill="white" transform="translate(587.5 1)"/>
        </clipPath>
    </defs>
</svg>
