<svg width="76" height="74" viewBox="0 0 76 74" fill="none" xmlns="http://www.w3.org/2000/svg">
    <path d="M6.85449 54.829L6.85655 68.3792C6.85655 70.9458 9.00468 73.0257 11.6546 73.0257H25.2103C26.6106 73.0257 27.9417 72.4328 28.8534 71.4032L67.3882 27.86C68.1333 27.0175 68.5431 25.9447 68.5431 24.8354V11.2851C68.5431 8.71863 66.395 6.63806 63.7451 6.63806H50.1873C48.787 6.63806 47.4559 7.2309 46.5443 8.26056L8.00944 51.8037C7.26369 52.6462 6.85449 53.719 6.85449 54.829Z" fill="#F0EB18"/>
    <path d="M6.85449 56.4588V68.3785C6.85449 70.9451 9.00263 73.0256 11.6525 73.0256H27.0767C27.3036 73.0256 27.5305 73.0097 27.7553 72.9792L71.278 66.9579C73.6421 66.6306 75.3974 64.6702 75.3974 62.3572V44.4739C75.3974 41.9067 73.2486 39.8262 70.5981 39.8268L48.7582 39.8322C48.2428 39.8322 47.7308 39.9125 47.2421 40.0705L10.135 52.0507C8.176 52.6833 6.85449 54.4592 6.85449 56.4594V56.4588Z" fill="url(#paint0_linear_259_571)"/>
    <path d="M0 4.64709V43.4058C0 45.2646 1.14398 46.9449 2.90759 47.6771L47.0746 66.0112C47.6716 66.2588 48.3152 66.3869 48.965 66.3869H70.5992C73.2491 66.3869 75.3972 64.3064 75.3972 61.7398V41.2402C75.3972 40.3221 75.1162 39.4245 74.5898 38.6604L49.3749 2.06928C48.4852 0.777391 46.9882 0.00199161 45.3843 0.00199161L4.79801 0C2.14814 0 0 2.08057 0 4.64709Z" fill="url(#paint1_linear_259_571)"/>
    <path d="M61.2605 13.6923H14.1372V59.3333H61.2605V13.6923Z" fill="black"/>
    <path d="M25.0206 31.9042L22.1668 19.4063H18.5947L22.8622 36.5268H26.7765L29.7939 24.0898L32.7735 36.5268H36.7L40.9932 19.4063H37.4955L34.7303 31.9042L31.5485 19.4063H28.0637L25.0206 31.9042Z" fill="white"/>
    <path d="M45.0299 36.1481C46.0229 36.5962 47.1593 36.8209 48.439 36.8209C49.7188 36.8209 50.8558 36.593 51.8488 36.1357C52.8417 35.6784 53.6122 35.0514 54.1594 34.2522C54.7147 33.4451 54.9927 32.5351 54.9927 31.5249C54.9927 30.7007 54.8033 29.9428 54.4245 29.2503C54.0457 28.5486 53.5154 27.9616 52.8336 27.4893C52.1599 27.0078 51.3902 26.6822 50.523 26.5112L47.5178 25.8751C46.9705 25.7453 46.537 25.5252 46.217 25.2147C45.9052 24.9042 45.7496 24.5131 45.7496 24.0407C45.7496 23.6254 45.8633 23.2631 46.0905 22.9525C46.3178 22.6348 46.6337 22.3898 47.0375 22.2188C47.4494 22.0399 47.9256 21.9495 48.464 21.9495C49.0025 21.9495 49.478 22.0426 49.8906 22.2306C50.3113 22.4094 50.6353 22.6663 50.8626 23.001C51.0898 23.3266 51.2035 23.6981 51.2035 24.1141H54.6504C54.6416 23.136 54.3724 22.2725 53.8421 21.5217C53.3199 20.7631 52.5881 20.1715 51.6452 19.7483C50.7023 19.3244 49.6126 19.1122 48.4255 19.1122C47.2384 19.1122 46.1778 19.3323 45.2437 19.7726C44.3096 20.2049 43.5818 20.8116 43.0596 21.5945C42.5381 22.3695 42.277 23.2454 42.277 24.2235C42.277 25.0306 42.4495 25.7571 42.7944 26.4005C43.1401 27.0445 43.6237 27.5869 44.2467 28.0272C44.8696 28.4595 45.6022 28.7655 46.4436 28.9443L49.5625 29.6172C50.1605 29.7567 50.6272 30.0043 50.964 30.3633C51.309 30.7224 51.4815 31.175 51.4815 31.7208C51.4815 32.161 51.355 32.5521 51.1027 32.8948C50.8585 33.2374 50.5095 33.506 50.0549 33.7019C49.6085 33.8899 49.112 33.9829 48.4891 33.9829C47.8661 33.9829 47.3148 33.8774 46.8353 33.6652C46.3557 33.4529 45.981 33.1594 45.7118 32.7847C45.4425 32.4106 45.3079 31.973 45.3079 31.4764H41.8481C41.865 32.5279 42.1512 33.4575 42.7065 34.2646C43.2706 35.0717 44.0451 35.7 45.0299 36.1481Z" fill="white"/>
    <path d="M20.0202 50.2051H38.8695V53.6282H20.0202V50.2051Z" fill="white"/>
    <defs>
        <linearGradient id="paint0_linear_259_571" x1="8.97864" y1="73.8442" x2="71.4254" y2="43.9516" gradientUnits="userSpaceOnUse">
            <stop offset="0.22" stop-color="#F0EB18"/>
            <stop offset="0.59" stop-color="#00C4F4"/>
        </linearGradient>
        <linearGradient id="paint1_linear_259_571" x1="70.7068" y1="68.2079" x2="3.75661" y2="-0.915939" gradientUnits="userSpaceOnUse">
            <stop offset="0.19" stop-color="#00C4F4"/>
            <stop offset="0.83" stop-color="#007DFE"/>
        </linearGradient>
    </defs>
</svg>
