<svg width="344" height="90" viewBox="0 0 344 90" fill="none" xmlns="http://www.w3.org/2000/svg">
    <path fill-rule="evenodd" clip-rule="evenodd" d="M133.953 45.835L141.917 19.386H148.302L137.405 53.5711H130.442L122.478 27.2477L114.432 53.5711H107.505L96.584 19.386H103.111L111.334 45.835L119.227 19.386H125.883L133.953 45.835ZM161.343 27.978C163.888 27.978 166.15 28.537 168.129 29.6438L168.105 29.6324C170.096 30.7506 171.64 32.291 172.735 34.2649C173.831 36.2389 174.385 38.4982 174.385 41.0426V42.4347H154.015C154.133 43.5872 154.428 44.6483 154.934 45.5953C155.571 46.7934 156.442 47.7291 157.562 48.3908C158.681 49.0641 159.941 49.395 161.355 49.395C162.604 49.395 163.723 49.1553 164.712 48.6875C165.702 48.2197 166.527 47.5579 167.186 46.7136H173.666C173.053 48.2654 172.17 49.5889 171.015 50.6957C169.861 51.8025 168.447 52.6583 166.809 53.2631C165.172 53.8678 163.346 54.1644 161.343 54.1644C158.81 54.1644 156.525 53.5939 154.498 52.4757C152.472 51.3461 150.87 49.7829 149.704 47.7861C148.537 45.7779 147.948 43.4731 147.948 41.0199C147.948 38.5667 148.537 36.3416 149.715 34.3562C150.894 32.3709 152.508 30.8077 154.546 29.6781C156.595 28.5485 158.799 27.978 161.343 27.978ZM154.135 38.5666H168.294C168.152 37.8021 167.929 37.0833 167.599 36.4101C167.01 35.2006 166.173 34.2536 165.089 33.5689C164.006 32.8843 162.757 32.5421 161.343 32.5421C159.929 32.5421 158.669 32.8729 157.55 33.5347C156.431 34.1965 155.559 35.1093 154.923 36.2732C154.536 36.9773 154.289 37.7493 154.135 38.5666ZM193.517 27.978C195.802 27.978 197.852 28.537 199.654 29.6552V29.621C201.469 30.7392 202.882 32.291 203.907 34.2878C204.932 36.2846 205.451 38.5324 205.451 41.0426C205.451 43.5529 204.932 45.8008 203.907 47.7976C202.882 49.7944 201.457 51.3461 199.654 52.4643C197.852 53.5825 195.802 54.1417 193.493 54.1417C191.372 54.1417 189.511 53.6852 187.897 52.7724C186.589 52.0422 185.529 51.038 184.693 49.8057V53.5597H178.743V19.3746H184.693V32.3138C185.529 31.0815 186.589 30.0888 187.897 29.3471C189.511 28.4343 191.384 27.978 193.517 27.978ZM195.837 48.0144C196.945 47.3412 197.805 46.4055 198.417 45.2074C199.03 44.0093 199.336 42.6287 199.336 41.0655C199.336 39.5023 199.03 38.1216 198.417 36.9236C197.805 35.7255 196.945 34.7898 195.837 34.1166C194.73 33.4434 193.493 33.1011 192.056 33.1011C190.618 33.1011 189.334 33.4434 188.227 34.1166C187.108 34.7898 186.248 35.7255 185.623 36.9236C184.999 38.1216 184.693 39.5023 184.693 41.0655C184.693 42.6287 184.999 44.0093 185.623 45.2188C186.248 46.4169 187.12 47.3639 188.227 48.0257C189.334 48.6989 190.642 49.0298 192.056 49.0298C193.469 49.0298 194.73 48.6876 195.837 48.0144ZM225.619 33.82C227.339 34.1965 228.871 34.8469 230.214 35.794L230.155 35.8281C231.498 36.7752 232.546 37.9277 233.289 39.2969C234.031 40.6661 234.408 42.1609 234.408 43.7926C234.408 45.7665 233.866 47.5465 232.782 49.1211C231.698 50.6957 230.178 51.9395 228.223 52.8409C226.267 53.7423 224.052 54.1987 221.531 54.1987C219.01 54.1987 216.772 53.7423 214.828 52.8637C212.884 51.9851 211.353 50.7414 210.257 49.144C209.162 47.5465 208.596 45.7094 208.584 43.6214H214.887C214.887 44.6825 215.182 45.6068 215.747 46.4169C216.312 47.227 217.102 47.8546 218.127 48.311C219.152 48.7674 220.365 48.9956 221.649 48.9956C222.933 48.9956 224.052 48.7788 225.018 48.3681C225.996 47.9573 226.738 47.3754 227.269 46.6337C227.799 45.892 228.058 45.0363 228.058 44.0778C228.058 42.8911 227.693 41.9098 226.951 41.1339C226.208 40.3695 225.195 39.8218 223.899 39.5137L217.75 38.1673C216.089 37.7908 214.628 37.1632 213.391 36.3074C212.154 35.4517 211.176 34.3791 210.493 33.1126C209.798 31.8346 209.456 30.4083 209.456 28.8337C209.456 26.9054 209.974 25.1938 210.999 23.6763C212.024 22.1701 213.45 20.9834 215.288 20.1163C217.125 19.2605 219.152 18.8269 221.52 18.8269C223.888 18.8269 225.996 19.2491 227.846 20.082C229.695 20.915 231.133 22.0902 232.158 23.5735C233.183 25.0569 233.713 26.7685 233.725 28.6854H227.422C227.422 27.784 227.186 26.9853 226.703 26.2664C226.232 25.5476 225.549 24.9884 224.665 24.6005C223.782 24.2125 222.745 24.0186 221.602 24.0186C220.459 24.0186 219.446 24.2011 218.574 24.5776C217.703 24.9542 217.019 25.4791 216.536 26.1637C216.053 26.8483 215.806 27.647 215.806 28.5598C215.806 29.5753 216.148 30.4197 216.843 31.0815C217.538 31.7319 218.48 32.2226 219.67 32.5306L225.619 33.82ZM242.03 22.4668H247.567V28.5712H254.423L254.4 33.5804H247.543L247.567 46.2001C247.567 46.8847 247.803 47.4552 248.262 47.9002C248.733 48.3452 249.311 48.5735 250.017 48.5735H254.4V53.5825H248.828C247.449 53.5825 246.2 53.2972 245.105 52.7267C244.009 52.1562 243.149 51.369 242.537 50.3535C241.924 49.3379 241.618 48.1969 241.618 46.9304L241.594 33.5689H237.058L237.082 28.5598H239.909C240.557 28.5598 241.064 28.3658 241.453 27.9893C241.842 27.6128 242.03 27.1221 242.03 26.5174V22.4668ZM269.574 27.978C272.106 27.978 274.415 28.5485 276.477 29.6895H276.465C278.527 30.8305 280.153 32.3937 281.343 34.3905C282.532 36.3759 283.122 38.6123 283.122 41.0655C283.122 43.5187 282.521 45.7437 281.343 47.7405C280.165 49.7373 278.527 51.3004 276.465 52.4415C274.404 53.5825 272.071 54.153 269.538 54.153C267.005 54.153 264.696 53.5825 262.635 52.4415C260.573 51.3004 258.947 49.7258 257.757 47.7405C256.568 45.7551 255.979 43.5187 255.979 41.0655C255.979 38.6123 256.568 36.3873 257.746 34.3905C258.924 32.3937 260.549 30.8305 262.623 29.6895C264.708 28.5485 267.041 27.978 269.574 27.978ZM273.402 48.0029C274.521 47.3411 275.393 46.4055 276.006 45.196C276.618 43.9865 276.925 42.6287 276.925 41.0655C276.925 39.5023 276.618 38.1216 275.994 36.9236C275.382 35.7255 274.51 34.7898 273.391 34.1166C272.271 33.4434 270.987 33.1011 269.55 33.1011C268.113 33.1011 266.829 33.4435 265.709 34.1053C264.602 34.767 263.73 35.7026 263.118 36.9121C262.505 38.1216 262.199 39.5137 262.199 41.0655C262.199 42.6173 262.505 43.9979 263.118 45.196C263.73 46.3941 264.59 47.3411 265.709 48.0029C266.817 48.6761 268.113 49.007 269.55 49.007C270.987 49.007 272.271 48.6647 273.402 48.0029ZM293.324 32.348C293.995 31.2869 294.82 30.4197 295.798 29.7693L295.786 29.7807C297.164 28.8565 298.778 28.4001 300.604 28.4001H301.559V34.2079H299.897C298.578 34.2079 297.412 34.4475 296.434 34.9153C295.444 35.3946 294.69 36.0678 294.16 36.9464C293.63 37.825 293.371 38.8633 293.371 40.0728V53.5711H287.422V28.5598H293.324V32.348ZM339.469 29.1874C340.859 29.9976 341.92 31.1385 342.674 32.6219L342.662 32.6561C343.404 34.1395 343.781 35.8624 343.781 37.8364V53.6168H337.832V38.521C337.832 37.3914 337.631 36.4215 337.243 35.6113C336.854 34.7898 336.288 34.1623 335.546 33.7287C334.804 33.2837 333.909 33.0669 332.872 33.0669C331.765 33.0669 330.787 33.3065 329.938 33.7972C329.09 34.2878 328.431 34.9838 327.971 35.8966C327.512 36.8094 327.276 37.8706 327.276 39.0915V53.5939H321.456V38.4982C321.456 37.3686 321.256 36.3987 320.867 35.5886C320.467 34.767 319.889 34.1394 319.147 33.7059C318.393 33.2609 317.498 33.044 316.461 33.044C315.342 33.044 314.352 33.2837 313.516 33.7743C312.668 34.265 312.032 34.961 311.572 35.8738C311.113 36.7867 310.889 37.8478 310.889 39.0687V53.5711H304.94V28.5598H310.712V32.3937C311.431 31.0929 312.35 30.0546 313.504 29.3015C314.871 28.4115 316.532 27.9665 318.358 27.9665C320.184 27.9665 321.774 28.3659 323.106 29.176C324.437 29.9861 325.474 31.1272 326.192 32.6105L326.263 32.7816C327.052 31.3325 328.101 30.1801 329.444 29.3471C330.928 28.4343 332.66 27.978 334.639 27.978C336.477 27.978 338.079 28.3773 339.469 29.1874ZM103.315 84.6527C103.515 84.299 103.609 83.8996 103.609 83.4546H103.621V73.0142H107.273V83.7056C107.273 84.7097 107.038 85.6111 106.555 86.4213C106.072 87.2314 105.412 87.859 104.575 88.3154C103.739 88.7718 102.785 89 101.736 89H98.9442V85.7481H101.241C101.713 85.7481 102.125 85.6568 102.478 85.4628C102.844 85.2688 103.115 85.0064 103.315 84.6527ZM121.292 82.4847H113.635V82.4961V85.9306H122.329V89.0114H110.077V73.0142H122.093V76.1064H113.635V79.4952H121.292V82.4847ZM128.549 76.1863H123.66H123.649V73.0142H137.067V76.1863H132.201V89H128.549V76.1863ZM148.812 80.6363C149.154 80.7276 149.472 80.8416 149.767 80.99H149.778C150.45 81.3437 150.98 81.8229 151.357 82.4505C151.734 83.0781 151.923 83.7855 151.923 84.5728C151.923 85.4286 151.687 86.1931 151.204 86.8663C150.721 87.5395 150.049 88.0643 149.178 88.4409C148.306 88.8174 147.316 89.0114 146.209 89.0114H138.728V73.0142H146.067C147.116 73.0142 148.058 73.1968 148.883 73.5505C149.708 73.9042 150.344 74.4063 150.803 75.0452C151.263 75.6842 151.487 76.4145 151.487 77.2246C151.487 77.932 151.31 78.5596 150.968 79.1073C150.627 79.655 150.144 80.0886 149.543 80.3852C149.331 80.493 149.088 80.5601 148.854 80.6249L148.812 80.6363ZM145.514 75.6956H142.274V75.7184V79.6322H145.514C145.961 79.6322 146.362 79.5409 146.704 79.3811C147.057 79.2214 147.316 78.9932 147.517 78.6851C147.717 78.377 147.811 78.0119 147.811 77.624C147.811 77.236 147.705 76.8937 147.517 76.6084C147.316 76.3118 147.045 76.095 146.704 75.9352C146.362 75.7755 145.961 75.6956 145.514 75.6956ZM146.975 86.079C147.352 85.9078 147.646 85.6796 147.858 85.3715V85.3943C148.07 85.0863 148.176 84.744 148.176 84.3332C148.176 83.9224 148.07 83.5573 147.858 83.2378C147.646 82.9183 147.34 82.6673 146.963 82.4961C146.574 82.325 146.138 82.2337 145.655 82.2337H142.274V86.33H145.655C146.15 86.33 146.598 86.2501 146.975 86.079ZM166.484 80.7504C165.977 81.5149 165.27 82.1196 164.351 82.5418H164.34C164.175 82.6217 163.986 82.6901 163.798 82.7586L167.567 89.0114H163.397L160.051 83.1808H157.672V89.0114H154.02V73.0142H161.253C162.443 73.0142 163.491 73.2196 164.398 73.6418C165.306 74.064 166.001 74.6573 166.495 75.4218C166.99 76.1863 167.238 77.0534 167.238 78.069C167.238 79.0845 166.99 79.9859 166.484 80.7504ZM162.29 80.0543C162.667 79.8718 162.961 79.6093 163.161 79.2784V79.2899C163.362 78.959 163.468 78.571 163.468 78.1146C163.468 77.6582 163.362 77.2702 163.161 76.9393C162.961 76.6084 162.667 76.3574 162.29 76.1749C161.913 76.0037 161.465 75.9124 160.958 75.9124H157.672V80.3282H160.958C161.465 80.3282 161.913 80.2369 162.29 80.0543ZM168.781 89.0114L174.683 73.0142H178.641L184.673 89.0114H181.033L179.784 85.4856H173.658L172.492 89.0114H168.781ZM176.391 77.1561L174.495 82.8042H178.865L176.839 77.1561L176.615 76.1292L176.391 77.1561ZM189.857 89.0114H186.087V73.0142H189.857V89.0114ZM196.266 73.0142L203.358 83.8311H203.369V73.0142H206.703V89.0114H203.11L196.042 78.1945V89.0114H192.708V73.0142H196.266ZM217.212 79.4724C218.048 79.6208 218.779 79.9288 219.427 80.3738V80.351C220.075 80.8074 220.569 81.3551 220.935 82.0283C221.3 82.7015 221.477 83.4318 221.477 84.2191C221.477 85.189 221.206 86.0561 220.675 86.8206C220.145 87.5851 219.403 88.1898 218.461 88.6234C217.506 89.057 216.411 89.2738 215.197 89.2738C213.984 89.2738 212.9 89.057 211.958 88.6349C211.015 88.2127 210.273 87.6079 209.731 86.8549C209.189 86.1018 208.906 85.2118 208.895 84.2191H212.547C212.547 84.6299 212.664 84.995 212.888 85.3145C213.112 85.634 213.43 85.8736 213.843 86.0447C214.255 86.2159 214.726 86.3072 215.233 86.3072C215.739 86.3072 216.175 86.2273 216.552 86.079C216.929 85.9306 217.212 85.7138 217.424 85.4286C217.636 85.1433 217.742 84.8238 217.742 84.4701C217.742 84.0251 217.601 83.66 217.318 83.3633C217.035 83.0667 216.646 82.8613 216.163 82.7472L213.195 82.1538C212.417 81.9941 211.734 81.7088 211.145 81.2981C210.556 80.8873 210.096 80.3624 209.778 79.7463C209.46 79.1187 209.295 78.4227 209.295 77.6582C209.295 76.6997 209.554 75.8554 210.049 75.1137C210.556 74.372 211.251 73.7901 212.146 73.3679C213.041 72.9458 214.055 72.7404 215.209 72.7404C216.364 72.7404 217.4 72.9458 218.296 73.3451C219.191 73.7445 219.898 74.3036 220.404 75.0224C220.911 75.7299 221.182 76.5628 221.206 77.487H217.553C217.553 77.1447 217.447 76.8367 217.259 76.5628C217.059 76.289 216.788 76.0836 216.446 75.9352C216.104 75.7755 215.692 75.707 215.244 75.707C214.797 75.707 214.396 75.7869 214.055 75.9238C213.713 76.0608 213.442 76.2661 213.253 76.5172C213.065 76.7796 212.971 77.0763 212.971 77.4186C212.971 77.8065 213.1 78.1146 213.36 78.377C213.619 78.6395 213.972 78.8106 214.408 78.9133L217.212 79.4724ZM234.153 89.0114H230.383V73.0142H234.153V89.0114ZM243.436 73.0142C245.003 73.0142 246.417 73.3679 247.665 74.0525C248.914 74.7486 249.904 75.6956 250.61 76.9165C251.329 78.126 251.683 79.5066 251.683 81.0128C251.683 82.519 251.317 83.8882 250.61 85.1091C249.904 86.33 248.926 87.277 247.665 87.9731C246.405 88.6691 245.003 89.0114 243.436 89.0114H236.992V73.0142H243.436ZM245.804 85.4058C246.487 85.0064 247.017 84.4359 247.383 83.6942V83.6828C247.748 82.9411 247.936 82.0397 247.936 81.0014C247.936 79.9631 247.748 79.0616 247.383 78.32C247.017 77.5783 246.487 77.0078 245.804 76.6084C245.121 76.2091 244.32 76.0151 243.389 76.0151H240.656V85.9991H243.389C244.32 85.9991 245.121 85.8051 245.804 85.4058ZM257.349 82.4847V85.9192V85.9306H266.043V89.0114H253.791V73.0142H265.808V76.1064H257.349V79.4952H265.007V82.4847H257.349Z" fill="white"/>
    <path d="M6.85449 54.829L6.85655 68.3792C6.85655 70.9458 9.00468 73.0257 11.6546 73.0257H25.2103C26.6106 73.0257 27.9417 72.4328 28.8534 71.4032L67.3882 27.86C68.1333 27.0175 68.5431 25.9447 68.5431 24.8354V11.2851C68.5431 8.71863 66.395 6.63806 63.7451 6.63806H50.1873C48.787 6.63806 47.4559 7.2309 46.5443 8.26056L8.00944 51.8037C7.26369 52.6462 6.85449 53.719 6.85449 54.829Z" fill="#F0EB18"/>
    <path d="M6.85449 56.4588V68.3785C6.85449 70.9451 9.00263 73.0256 11.6525 73.0256H27.0767C27.3036 73.0256 27.5305 73.0097 27.7553 72.9792L71.278 66.9579C73.6421 66.6306 75.3974 64.6702 75.3974 62.3572V44.4739C75.3974 41.9067 73.2486 39.8262 70.5981 39.8268L48.7582 39.8322C48.2428 39.8322 47.7308 39.9125 47.2421 40.0705L10.135 52.0507C8.176 52.6833 6.85449 54.4592 6.85449 56.4594V56.4588Z" fill="url(#paint0_linear_201_11706)"/>
    <path d="M0 4.64709V43.4058C0 45.2646 1.14398 46.9449 2.90759 47.6771L47.0746 66.0112C47.6716 66.2588 48.3152 66.3869 48.965 66.3869H70.5992C73.2491 66.3869 75.3972 64.3064 75.3972 61.7398V41.2402C75.3972 40.3221 75.1162 39.4245 74.5898 38.6604L49.3749 2.06928C48.4852 0.777391 46.9882 0.00199161 45.3843 0.00199161L4.79801 0C2.14814 0 0 2.08057 0 4.64709Z" fill="url(#paint1_linear_201_11706)"/>
    <path d="M61.2605 13.6923H14.1372V59.3333H61.2605V13.6923Z" fill="black"/>
    <path d="M25.0206 31.9042L22.1668 19.4063H18.5947L22.8622 36.5268H26.7765L29.7939 24.0898L32.7735 36.5268H36.7L40.9932 19.4063H37.4955L34.7303 31.9042L31.5485 19.4063H28.0637L25.0206 31.9042Z" fill="white"/>
    <path d="M45.0299 36.1481C46.0229 36.5962 47.1593 36.8209 48.439 36.8209C49.7188 36.8209 50.8558 36.593 51.8488 36.1357C52.8417 35.6784 53.6122 35.0514 54.1594 34.2522C54.7147 33.4451 54.9927 32.5351 54.9927 31.5249C54.9927 30.7007 54.8033 29.9428 54.4245 29.2503C54.0457 28.5486 53.5154 27.9616 52.8336 27.4893C52.1599 27.0078 51.3902 26.6822 50.523 26.5112L47.5178 25.8751C46.9705 25.7453 46.537 25.5252 46.217 25.2147C45.9052 24.9042 45.7496 24.5131 45.7496 24.0407C45.7496 23.6254 45.8633 23.2631 46.0905 22.9525C46.3178 22.6348 46.6337 22.3898 47.0375 22.2188C47.4494 22.0399 47.9256 21.9495 48.464 21.9495C49.0025 21.9495 49.478 22.0426 49.8906 22.2306C50.3113 22.4094 50.6353 22.6663 50.8626 23.001C51.0898 23.3266 51.2035 23.6981 51.2035 24.1141H54.6504C54.6416 23.136 54.3724 22.2725 53.8421 21.5217C53.3199 20.7631 52.5881 20.1715 51.6452 19.7483C50.7023 19.3244 49.6126 19.1122 48.4255 19.1122C47.2384 19.1122 46.1778 19.3323 45.2437 19.7726C44.3096 20.2049 43.5818 20.8116 43.0596 21.5945C42.5381 22.3695 42.277 23.2454 42.277 24.2235C42.277 25.0306 42.4495 25.7571 42.7944 26.4005C43.1401 27.0445 43.6237 27.5869 44.2467 28.0272C44.8696 28.4595 45.6022 28.7655 46.4436 28.9443L49.5625 29.6172C50.1605 29.7567 50.6272 30.0043 50.964 30.3633C51.309 30.7224 51.4815 31.175 51.4815 31.7208C51.4815 32.161 51.355 32.5521 51.1027 32.8948C50.8585 33.2374 50.5095 33.506 50.0549 33.7019C49.6085 33.8899 49.112 33.9829 48.4891 33.9829C47.8661 33.9829 47.3148 33.8774 46.8353 33.6652C46.3557 33.4529 45.981 33.1594 45.7118 32.7847C45.4425 32.4106 45.3079 31.973 45.3079 31.4764H41.8481C41.865 32.5279 42.1512 33.4575 42.7065 34.2646C43.2706 35.0717 44.0451 35.7 45.0299 36.1481Z" fill="white"/>
    <path d="M20.0202 50.2051H38.8695V53.6282H20.0202V50.2051Z" fill="white"/>
    <defs>
        <linearGradient id="paint0_linear_201_11706" x1="8.97864" y1="73.8442" x2="71.4254" y2="43.9516" gradientUnits="userSpaceOnUse">
            <stop offset="0.22" stop-color="#F0EB18"/>
            <stop offset="0.59" stop-color="#00C4F4"/>
        </linearGradient>
        <linearGradient id="paint1_linear_201_11706" x1="70.7068" y1="68.2079" x2="3.75661" y2="-0.915939" gradientUnits="userSpaceOnUse">
            <stop offset="0.19" stop-color="#00C4F4"/>
            <stop offset="0.83" stop-color="#007DFE"/>
        </linearGradient>
    </defs>
</svg>
